General

Format                           : MPEG-4
Format profile                   : Base Media
Codec ID                         : isom
File size                        : 84.3 MiB
Duration                         : 3mn 39s
Overall bit rate                 : 3 230 Kbps
Encoded date                     : UTC 2012-06-23 06:39:42
Tagged date                      : UTC 2012-06-23 06:39:42

Video
ID                               : 1
Format                           : AVC
Format/Info                      : Advanced Video Codec
Format profile                   : High@L3.0
Format settings, CABAC           : Yes
Format settings, ReFrames        : 2 frames
Codec ID                         : avc1
Codec ID/Info                    : Advanced Video Coding
Duration                         : 3mn 39s
Bit rate mode                    : Variable
Bit rate                         : 3 139 Kbps
Maximum bit rate                 : 9 967 Kbps
Width                            : 720 pixels
Height                           : 480 pixels
Display aspect ratio             : 16:9
Original display aspect ratio    : 16:9
Frame rate mode                  : Constant
Frame rate                       : 23.976 fps
Standard                         : NTSC
Color space                      : YUV
Chroma subsampling               : 4:2:0
Bit depth                        : 8 bits
Scan type                        : Progressive
Bits/(Pixel*Frame)               : 0.379
Stream size                      : 82.9 MiB (98%)


Audio
ID                               : 2
Format                           : AAC
Format/Info                      : Advanced Audio Codec
Format profile                   : LC
Codec ID                         : 40
Duration                         : 3mn 38s
Bit rate mode                    : Variable
Bit rate                         : 48.0 Kbps
Maximum bit rate                 : 70.4 Kbps
Channel(s)                       : 2 channels
Channel positions                : Front: L R
Sampling rate                    : 44.1 KHz
Compression mode                 : Lossy
Stream size                      : 1.25 MiB (1%)